# xmcd
#
# Track frame offsets:
#	150
#	15078
#	34276
#	53344
#	71850
#	90103
#	109877
#	127552
#	143789
#	161163
#	176056
#
# Disc length: 2604 seconds
#
# Revision: 0
# Processed by: cddbd v1.5.2PL0 Copyright (c) Steve Scherf et al.
# Submitted via: EasyCDDAExtractor 10.0.1.1
#
DISCID=810a2a0b
DTITLE=Chayanne - Mi tiempo
DYEAR=2007
DGENRE=Pop
TTITLE0=Si nos quedara mucho tiempo
TTITLE1=Lola
TTITLE2=Cuestion de feeling
TTITLE3=Tengo miedo
TTITLE4=Indispensable
TTITLE5=Bailarina
TTITLE6=Te amare
TTITLE7=Sin palabras de relleno
TTITLE8=Me voy a rio
TTITLE9=Loco por vos
TTITLE10=Juicio final
EXTD=
EXTT0=
EXTT1=
EXTT2=
EXTT3=
EXTT4=
EXTT5=
EXTT6=
EXTT7=
EXTT8=
EXTT9=
EXTT10=
PLAYORDER=
